# Blender 3.1.0
# www.blender.org
mtllib sw_blasters_detonator.mtl
o Plane.001
v -0.995865 -0.000145 -0.997006
v 0.996310 -0.000145 -0.997005
v 0.996310 -0.000144 0.995509
v -0.995865 -0.000144 0.995508
v -0.995865 0.001335 -0.997006
v -0.995865 0.001336 0.995508
v 0.996310 0.001336 0.995509
v 0.996310 0.001335 -0.997005
v -0.995865 0.997006 -0.000145
v 0.996310 0.997005 -0.000145
v 0.996310 -0.995509 -0.000144
v -0.995865 -0.995508 -0.000144
v -0.995865 0.997006 0.001335
v -0.995865 -0.995508 0.001336
v 0.996310 -0.995509 0.001336
v 0.996310 0.997005 0.001335
v -0.000145 0.997006 0.995865
v -0.000145 0.997005 -0.996310
v -0.000144 -0.995509 -0.996310
v -0.000144 -0.995508 0.995865
v 0.001335 0.997006 0.995865
v 0.001336 -0.995508 0.995865
v 0.001336 -0.995509 -0.996310
v 0.001335 0.997005 -0.996310
vn -0.0000 -1.0000 -0.0000
vn -0.0000 1.0000 -0.0000
vn -0.0000 -0.0000 -1.0000
vn -0.0000 -0.0000 1.0000
vn -1.0000 -0.0000 -0.0000
vn 1.0000 -0.0000 -0.0000
vt 0.000000 0.000000
vt 1.000000 0.000000
vt 1.000000 1.000000
vt 0.000000 1.000000
vt 0.000000 0.000000
vt 1.000000 0.000000
vt 1.000000 1.000000
vt 0.000000 1.000000
vt 0.000000 0.000000
vt 1.000000 0.000000
vt 1.000000 1.000000
vt 0.000000 1.000000
vt 0.000000 0.000000
vt 1.000000 0.000000
vt 1.000000 1.000000
vt 0.000000 1.000000
vt 0.000000 0.000000
vt 1.000000 0.000000
vt 1.000000 1.000000
vt 0.000000 1.000000
vt 0.000000 0.000000
vt 1.000000 0.000000
vt 1.000000 1.000000
vt 0.000000 1.000000
s 1
usemtl Material.001
f 1/1/1 2/2/1 3/3/1 4/4/1
f 5/5/2 6/6/2 7/7/2 8/8/2
f 9/9/3 10/10/3 11/11/3 12/12/3
f 13/13/4 14/14/4 15/15/4 16/16/4
f 17/17/5 18/18/5 19/19/5 20/20/5
f 21/21/6 22/22/6 23/23/6 24/24/6
