# Blender 3.1.0
# www.blender.org
mtllib sw_blasters_blast_basic.mtl
o Plane.001
v -0.550252 -0.002107 -1.000000
v 0.495756 -0.002107 -1.000000
v 0.495756 -0.002103 1.000000
v -0.550252 -0.002103 0.999999
v -0.550252 0.002103 -1.000000
v -0.550252 0.002107 0.999999
v 0.495756 0.002107 1.000000
v 0.495756 0.002103 -1.000000
v 0.002106 -0.494967 -1.000000
v 0.002106 0.439013 -1.000000
v 0.002105 0.439018 1.000000
v 0.002104 -0.494962 1.000000
v -0.002105 -0.494967 -1.000000
v -0.002106 -0.494962 1.000000
v -0.002106 0.439018 1.000000
v -0.002104 0.439013 -1.000000
v 0.250278 0.250276 -1.000000
v 0.250278 -0.250280 -1.000000
v -0.250278 -0.250280 -1.000000
v -0.250278 0.250276 -1.000000
vn -0.0000 -1.0000 -0.0000
vn -0.0000 1.0000 -0.0000
vn 1.0000 -0.0000 -0.0000
vn -1.0000 -0.0000 -0.0000
vn -0.0000 -0.0000 -1.0000
vt -0.000000 0.224874
vt -0.000000 0.747878
vt 1.000000 0.747878
vt 1.000000 0.224874
vt 0.000000 0.224874
vt 1.000000 0.224874
vt 1.000000 0.747878
vt 0.000000 0.747878
vt -0.000000 0.747482
vt -0.000000 0.280492
vt 1.000000 0.280492
vt 1.000000 0.747482
vt 0.000000 0.747482
vt 1.000000 0.747482
vt 1.000000 0.280492
vt 0.000000 0.280492
vt 0.241879 0.995785
vt 0.004215 0.995785
vt 0.004215 0.758121
vt 0.241879 0.758121
s 1
usemtl Material.001
f 1/1/1 2/2/1 3/3/1 4/4/1
f 5/5/2 6/6/2 7/7/2 8/8/2
f 9/9/3 10/10/3 11/11/3 12/12/3
f 13/13/4 14/14/4 15/15/4 16/16/4
f 17/17/5 18/18/5 19/19/5 20/20/5
